<svg xmlns="http://www.w3.org/2000/svg" viewBox="0 0 1200 1200"><defs><style>.b,.c{fill:#1d1e1c}.b{opacity:.2}.e{fill:#fff}</style></defs><circle cx="600" cy="600" r="600" style="fill:#67cece"/><ellipse cx="455.01" cy="620.09" class="b" rx="79.63" ry="20.09"/><ellipse cx="290.25" cy="615.73" class="b" rx="79.63" ry="20.09"/><ellipse cx="329.43" cy="734.21" class="b" rx="79.63" ry="20.09"/><ellipse cx="178.25" cy="677.64" class="b" rx="79.63" ry="20.09"/><path d="M368.06 609.63h-14.55V289.79l141.15 76-6.9 12.81-119.7-64.46v295.49z" class="c"/><path d="m257.48 672.79-14.43-1.82 40.21-317.96 213.45 32.05-2.16 14.39-198.72-29.84-38.35 303.18z" class="c"/><path d="m392.84 717.46-6.9-288.01 103.24-29.95 4.06 13.97-92.48 26.83 6.62 276.81-14.54.35z" class="c"/><path d="m508.14 596.66-47.61-142.83 67.27-16.08 3.38 14.15-51.83 12.39 42.59 127.76-13.8 4.61z" class="c"/><path d="M509.22 595.08s-14-24-35.38-8.73-9 36.37-9 36.37 7 6.55 30.78 7.28 29.4 0 33.86-5.09-10.08-43.25-10.08-43.25ZM236.29 648s-22.42-33.41-52.14-12.15-12.51 50.61-12.51 50.61 9.73 7.17 42.83 7.21c43.07.05 42.22-12.88 45.25-21.8 5.09-15-10.71-42.55-10.71-42.55ZM351.42 594.75s-29.7-42.13-59.42-20.88-12.51 50.61-12.51 50.61 9.73 7.18 42.83 7.21c43.07 0 45.13-8.51 48.16-17.43 5.09-15-13.62-46.92-13.62-46.92ZM391.43 708.15s-26.79-40.67-56.51-19.42-12.51 50.61-12.51 50.61 9.73 8.63 42.83 8.67c43.07 0 43.64-13.84 43.8-23.25.73-46-15.08-42.56-15.08-42.56ZM884.42 611.57h14.55V291.72l-141.15 76.01 6.9 12.81 119.7-64.46v295.49z" class="c"/><path d="m995 674.73 14.43-1.83-40.22-317.96L755.77 387l2.16 14.38 198.72-29.84L995 674.73z" class="c"/><path d="m859.64 719.4 6.89-288.01-103.23-29.96-4.06 13.97 92.48 26.84-6.62 276.81 14.54.35z" class="c"/><path d="m744.34 598.59 47.61-142.83-67.27-16.07-3.38 14.15 51.83 12.38-42.59 127.77 13.8 4.6z" class="c"/><path d="M743.26 597s14-24 35.38-8.73 9 36.37 9 36.37-7 6.55-30.78 7.27-29.4 0-33.86-5.09 10.08-43.24 10.08-43.24ZM1016.19 649.94s22.42-33.4 52.14-12.15 12.51 50.61 12.51 50.61-9.73 7.18-42.83 7.21c-43.07 0-42.22-12.88-45.25-21.79-5.09-15 10.71-42.55 10.71-42.55ZM901.06 596.68s29.7-42.13 59.41-20.87S973 626.42 973 626.42s-9.72 7.17-42.82 7.21c-43.07 0-45.13-8.52-48.16-17.44-5.1-15 13.62-46.91 13.62-46.91ZM861.05 710.09s26.79-40.68 56.51-19.42 12.51 50.61 12.51 50.61-9.73 8.63-42.83 8.66c-43.07 0-43.65-13.83-43.8-23.25-.73-46 15.08-42.55 15.08-42.55Z" class="c"/><path d="M788.53 345.46c0 87.81-70 134.27-156.39 134.27s-152-46.46-152-134.27 65.65-118.27 152-118.27 156.39 30.46 156.39 118.27Z" style="fill:#38a9b4"/><path d="M630.23 487c-45.68 0-84.77-12.41-113.05-35.88-30.26-25.12-46.25-61.66-46.25-105.66 0-82.13 55.09-125.54 159.3-125.54 105.55 0 163.67 44.58 163.67 125.54 0 43.83-16.78 80.4-48.54 105.75-28.92 23.08-69.8 35.79-115.13 35.79Zm0-252.53c-96.05 0-144.75 37.34-144.75 111 0 78.33 55.47 127 144.75 127 90.59 0 149.12-49.84 149.12-127 0-91.75-81.09-111-149.12-111Z" class="c"/><ellipse cx="573.22" cy="252.21" class="e" rx="97.47" ry="100.8"/><path d="M571.31 358.1c-56.55 0-102.56-47.5-102.56-105.89s46-105.89 102.56-105.89 102.57 47.5 102.57 105.89S627.87 358.1 571.31 358.1Zm0-201.6c-50.94 0-92.38 42.94-92.38 95.71s41.44 95.71 92.38 95.71 92.38-42.94 92.38-95.71-41.44-95.71-92.38-95.71Z" class="c"/><ellipse cx="718.84" cy="268.66" class="e" rx="80.41" ry="78.86"/><path d="M716.93 352.61c-47.15 0-85.5-37.66-85.5-83.95s38.35-84 85.5-84 85.51 37.66 85.51 84-38.36 83.95-85.51 83.95Zm0-157.73c-41.53 0-75.32 33.1-75.32 73.78s33.79 73.77 75.32 73.77 75.32-33.1 75.32-73.77-33.78-73.78-75.32-73.78Z" class="c"/><circle cx="579.54" cy="257.52" r="44.9" class="c"/><circle cx="603.6" cy="250.7" r="12.37" class="e"/><ellipse cx="725.28" cy="273.32" class="c" rx="36.39" ry="34.92"/><circle cx="718.26" cy="267.09" r="10.01" class="e"/><ellipse cx="798.86" cy="622.76" class="b" rx="79.63" ry="20.09"/><ellipse cx="963.62" cy="618.39" class="b" rx="79.63" ry="20.09"/><ellipse cx="924.44" cy="736.88" class="b" rx="79.63" ry="20.09"/><ellipse cx="1075.62" cy="680.31" class="b" rx="79.63" ry="20.09"/><path d="m537.94 685.09 23.59 19.27c6.84 5.77 10.62 10.45 11.16 19.27v68.26a15.38 15.38 0 0 1-15.49 15.49 15.57 15.57 0 0 1-15.84-15.49v-15.31l-31.34-29v44.3a15.53 15.53 0 0 1-15.67 15.49 15.69 15.69 0 0 1-15.85-15.49v-68.25c.73-8.82 4.87-13.5 11.53-19.27l23.05-19.27c9.19-7.2 15.85-7.56 24.86 0Zm3.42 60.15v-32.77H510v32.77ZM619.71 775.68v15.13c0 8.82-6.48 16-15.31 16a16 16 0 0 1-15.85-16v-83.74a26.83 26.83 0 0 1 26.66-26.66h23.95a26.27 26.27 0 0 1 18.55 7.39L675 705.08c11.34 10.81 9.36 37.46-1.62 48.09l-15.67 15a25 25 0 0 1-18.55 7.56ZM650 744.16v-32.23l-29.89-.36v32.59ZM693.36 793v-58.13c0-7.87 6.64-14.87 15.85-14.87 9 0 16 6.33 16 14.08V793c0 7.75-7 14.24-16 14.24-8.64 0-15.85-6.49-15.85-14.24Zm31.18-80.27H694v-32h30.53ZM227.4 941.44v15.13c0 8.82-6.49 16-15.31 16a16 16 0 0 1-15.85-16v-83.74a26.83 26.83 0 0 1 26.65-26.66h24a26.28 26.28 0 0 1 18.55 7.39l17.28 17.28c11.35 10.81 9.37 37.46-1.62 48.09l-15.66 15a25 25 0 0 1-18.55 7.56Zm30.25-31.52v-32.23l-29.89-.36v32.59ZM299.43 945.22v-84.1c0-8.46 7.38-15.49 15.85-15.49a15.73 15.73 0 0 1 16 15.49v80c15.84 0 11.34-.36 27-.36 20.71 0 20.71 31.7 0 31.7H326.8a27.45 27.45 0 0 1-27.37-27.24ZM441.52 850.86l23.59 19.26c6.85 5.77 10.63 10.45 11.17 19.28v68.25a15.38 15.38 0 0 1-15.49 15.49 15.58 15.58 0 0 1-15.85-15.49v-15.31l-31.33-29v44.3a15.76 15.76 0 0 1-31.52 0V889.4c.72-8.83 4.86-13.51 11.53-19.28l23.05-19.26c9.18-7.21 15.85-7.57 24.85 0Zm3.42 60.14v-32.77h-31.33V911ZM551 846.35c20.36 0 20.36 31.34 0 31.34h-13.5v79.78c0 21.25-31.52 21.25-31.52 0v-79.78h-13.5c-20.53 0-20.53-31.34 0-31.34ZM606.48 877.87v20.89h28.28a15.79 15.79 0 0 1 15.66 15.67 16.15 16.15 0 0 1-16 15.85h-27.94v27.55c0 20.53-31.51 20.53-31.51 0V873a26.55 26.55 0 0 1 26.47-26.66h40.16a15.69 15.69 0 0 1 15.85 15.49 16.27 16.27 0 0 1-15.85 16ZM694.19 846.53h36a26.83 26.83 0 0 1 26.66 26.66v72.39c0 13-12.43 26.66-25.76 26.66h-37.61c-13.33 0-26.66-13.69-26.66-26.66v-72.39c0-15.67 12.97-26.66 27.37-26.66Zm31.16 31.52h-27v63h27ZM845.29 921.09c11.16 6.84 15.13 15.49 15.13 26.83v9.19a15.4 15.4 0 1 1-30.8 0v-8.83l-30.8-37.45v46.28a15.53 15.53 0 0 1-15.48 15.67 15.72 15.72 0 0 1-15.85-15.67V862.2a15.76 15.76 0 0 1 15.85-15.85h35.12c7.38 0 13.5 2.7 18.9 7.75l15.31 14.77c5.41 5.4 8.47 11.7 8.47 19.44v7c0 12.45-5.77 20.74-15.85 25.78Zm-46.47-43.22v30.25h30.8v-30.25ZM926 851.22l13.69 14.58 13.68-14.58c7.57-7.93 18.37-7.93 25.4 0l18.36 19.09c5.59 6.3 10.27 10.26 11.17 19.09V958c0 20.35-31.7 20.35-31.7 0v-79.77h-21.1V958c0 20.89-31.51 20.89-31.51 0v-79.77h-20.71V958c0 20.35-31.7 20.35-31.7 0v-68.6c.36-8.83 5.4-12.79 11.17-19.09l18.37-19.09c7.02-7.93 17.88-7.93 24.88 0Z" class="e"/></svg>